# xmcd
#
# Track frame offsets:
#	150
#	19315
#	35676
#	56488
#	70171
#	89223
#	108923
#	124961
#	150736
#	164713
#	184644
#	206448
#
# Disc length: 3037 seconds
#
# Revision: 0
# Processed by: cddbd v1.5.2PL0 Copyright (c) Steve Scherf et al.
# Submitted via: audiograbber 1.81.01
#
DISCID=ac0bdb0c
DTITLE=Mark Knopfler and Emmylou Harris - All the Roadrunning
DYEAR=1900
DGENRE=Country Rock
TTITLE0=Beachcombing
TTITLE1=I dug up a Diamond
TTITLE2=This is us
TTITLE3=Red Staggerwing
TTITLE4=Rollin' on
TTITLE5=Love and Happiness
TTITLE6=Right now
TTITLE7=Donkey Town
TTITLE8=Belle Starr
TTITLE9=Beyond the wildest dreams
TTITLE10=All the roadrunning
TTITLE11=If this is goodye
EXTD=
EXTT0=
EXTT1=
EXTT2=
EXTT3=
EXTT4=
EXTT5=
EXTT6=
EXTT7=
EXTT8=
EXTT9=
EXTT10=
EXTT11=
PLAYORDER=
